<?xml version="1.0" standalone="no"?><!DOCTYPE svg PUBLIC "-//W3C//DTD SVG 1.1//EN" "http://www.w3.org/Graphics/SVG/1.1/DTD/svg11.dtd"><svg t="1514884145692" class="icon" style="" viewBox="0 0 1024 1024" version="1.1" xmlns="http://www.w3.org/2000/svg" p-id="2086" xmlns:xlink="http://www.w3.org/1999/xlink" width="200" height="200"><defs><style type="text/css"></style></defs><path d="M713.268468 961.306122a27.864628 27.864628 0 0 1-19.653619-8.080025L306.036603 569.760518c-14.886035-14.740726-23.14821-34.43016-23.25668-55.467289-0.12689-21.037129 7.934716-40.817638 22.655999-55.703673l383.483998-387.596665c10.864442-10.991332 28.55229-11.063987 39.526226-0.217964 10.972912 10.864442 11.082406 28.55229 0.217964 39.526225l-383.483998 387.615085c-4.222161 4.276397-6.532787 9.990538-6.496971 16.087397 0.01842 6.095835 2.4017 11.792581 6.679119 16.013718l387.56085 383.465579c10.972912 10.864442 11.082406 28.55229 0.217964 39.526225a27.864628 27.864628 0 0 1-19.872606 8.296966z" fill="#020202" p-id="2087"></path></svg>