<?xml version="1.0" standalone="no"?><!DOCTYPE svg PUBLIC "-//W3C//DTD SVG 1.1//EN" "http://www.w3.org/Graphics/SVG/1.1/DTD/svg11.dtd"><svg t="1514884202928" class="icon" style="" viewBox="0 0 1024 1024" version="1.1" xmlns="http://www.w3.org/2000/svg" p-id="3734" xmlns:xlink="http://www.w3.org/1999/xlink" width="200" height="200"><defs><style type="text/css"></style></defs><path d="M1016.735549 821.537845 529.391089 342.865905c-9.603729-9.429767-25.182542-9.429767-34.800597 0L7.228635 821.537845c-9.609869 9.467629-9.609869 24.75787 0 34.209126 9.603729 9.434883 25.213241 9.434883 34.817993 0l469.943139-461.613426 469.936999 461.613426c9.609869 9.434883 25.206078 9.434883 34.808784 0C1026.353604 846.295716 1026.353604 831.005474 1016.735549 821.537845L1016.735549 821.537845z" p-id="3735"></path><path d="M1013.485529 790.901081l-485.540372-476.901621c-9.568936-9.394974-25.089421-9.394974-34.671661 0l-485.558791 476.901621c-9.574053 9.432837-9.574053 24.666796 0 34.082236 9.568936 9.400091 25.120121 9.400091 34.689057 0l468.204541-459.904505 468.197378 459.904505c9.574053 9.400091 25.112957 9.400091 34.68087 0C1023.067768 815.567877 1023.067768 800.333918 1013.485529 790.901081L1013.485529 790.901081z" p-id="3736"></path></svg>